<svg xmlns="http://www.w3.org/2000/svg" xmlns:xlink="http://www.w3.org/1999/xlink" width="500" zoomAndPan="magnify" viewBox="0 0 375 374.999991" height="500" preserveAspectRatio="xMidYMid meet" version="1.0"><defs><clipPath id="29b2110a46"><path d="M 86.027344 70.511719 L 289.277344 70.511719 L 289.277344 304.511719 L 86.027344 304.511719 Z M 86.027344 70.511719 " clip-rule="nonzero"/></clipPath></defs><g clip-path="url(#29b2110a46)"><path fill="#db3838" d="M 102.21875 227.871094 C 120.398438 255.714844 151.832031 274.152344 187.496094 274.152344 C 243.617188 274.152344 289.277344 228.492188 289.277344 172.371094 C 289.277344 116.246094 243.617188 70.585938 187.496094 70.585938 C 131.375 70.585938 85.710938 116.246094 85.710938 172.371094 L 85.710938 304.414062 L 102.21875 304.414062 Z M 212.253906 172.371094 C 212.253906 158.71875 223.359375 147.609375 237.011719 147.609375 C 250.664062 147.609375 261.769531 158.71875 261.769531 172.371094 C 261.769531 186.023438 250.664062 197.128906 237.011719 197.128906 C 223.359375 197.128906 212.253906 186.023438 212.253906 172.371094 Z M 212.253906 221.886719 C 212.253906 235.539062 201.148438 246.644531 187.496094 246.644531 C 173.84375 246.644531 162.738281 235.539062 162.738281 221.886719 C 162.738281 208.234375 173.84375 197.128906 187.496094 197.128906 C 201.148438 197.128906 212.253906 208.234375 212.253906 221.886719 Z M 187.496094 147.609375 C 173.84375 147.609375 162.738281 136.503906 162.738281 122.851562 C 162.738281 109.199219 173.84375 98.09375 187.496094 98.09375 C 201.148438 98.09375 212.253906 109.199219 212.253906 122.851562 C 212.253906 136.503906 201.148438 147.609375 187.496094 147.609375 Z M 162.738281 172.371094 C 162.738281 186.023438 151.632812 197.128906 137.980469 197.128906 C 124.328125 197.128906 113.222656 186.023438 113.222656 172.371094 C 113.222656 158.71875 124.328125 147.609375 137.980469 147.609375 C 151.632812 147.609375 162.738281 158.71875 162.738281 172.371094 Z M 162.738281 172.371094 " fill-opacity="1" fill-rule="nonzero"/></g></svg>